<?xml version="1.0" encoding="UTF-8" standalone="no"?>
<svg
   xmlns:dc="http://purl.org/dc/elements/1.1/"
   xmlns:cc="http://creativecommons.org/ns#"
   xmlns:rdf="http://www.w3.org/1999/02/22-rdf-syntax-ns#"
   xmlns:svg="http://www.w3.org/2000/svg"
   xmlns="http://www.w3.org/2000/svg"
   id="svg19"
   version="1.1"
   height="512"
   width="512"
   viewBox="0 0 512 512">
  <metadata
     id="metadata25">
    <rdf:RDF>
      <cc:Work
         rdf:about="">
        <dc:format>image/svg+xml</dc:format>
        <dc:type
           rdf:resource="http://purl.org/dc/dcmitype/StillImage" />
      </cc:Work>
    </rdf:RDF>
  </metadata>
  <defs
     id="defs23" />
  <g
     data-name="Out line"
     id="Out_line">
    <path
       id="path2"
       d="M232,200.001V208h16V195.71973a7.99927,7.99927,0,0,0-3.99463-6.92481,24,24,0,1,1,23.98926,0A7.99927,7.99927,0,0,0,264,195.71973V208h16v-7.999a40,40,0,1,0-48,0Z" />
    <path
       id="path4"
       d="M159.78955,246.64111a40.16272,40.16272,0,0,0,35.71387,2.144l6.92724,3.99951,8-13.85645-10.63476-6.14013a7.99786,7.99786,0,0,0-7.99414-.00342,23.99986,23.99986,0,1,1,11.99414-20.7749,8.00083,8.00083,0,0,0,4,6.92187l10.63476,6.14014,8-13.85645-6.92724-3.99951a40.15788,40.15788,0,0,0-19.71387-29.85693,40.00008,40.00008,0,0,0-40,69.28222Z" />
    <path
       id="path6"
       d="M226.43066,300.78467l-8-13.85645-10.63476,6.14014a8.00083,8.00083,0,0,0-4,6.92187,24.00025,24.00025,0,1,1-11.99414-20.7749,7.99785,7.99785,0,0,0,7.99414-.00342l10.63476-6.14013-8-13.85645-6.92724,3.99951A40.0005,40.0005,0,0,0,145.14893,320a39.73561,39.73561,0,0,0,24.28857,18.63525,40.22005,40.22005,0,0,0,10.41992,1.38086,40.04369,40.04369,0,0,0,39.646-35.23193Z" />
    <path
       id="path8"
       d="M280,311.999V304H264v12.28027a7.99927,7.99927,0,0,0,3.99463,6.92481,23.99982,23.99982,0,1,1-23.98877-.00049A7.99984,7.99984,0,0,0,248,316.27979V304H232v7.99854a40.00032,40.00032,0,1,0,48,.00048Z" />
    <path
       id="path10"
       d="M352.21045,265.35889a40.16272,40.16272,0,0,0-35.71387-2.144l-6.92724-3.99951-8,13.85645,10.63476,6.14013a8.00142,8.00142,0,0,0,7.99414.00342,23.99986,23.99986,0,1,1-11.99414,20.7749,8.00083,8.00083,0,0,0-4-6.92187l-10.63476-6.14014-8,13.85645,6.92724,3.99951a39.93316,39.93316,0,0,0,50.06591,33.85107,39.99839,39.99839,0,0,0,9.648-73.27636Z" />
    <path
       id="path12"
       d="M342.56249,173.36475a39.7295,39.7295,0,0,0-30.352,3.99414,40.15788,40.15788,0,0,0-19.71387,29.85693l-6.92724,3.99951,8,13.85645,10.63476-6.14014a8.00083,8.00083,0,0,0,4-6.92187,24.00025,24.00025,0,1,1,11.99414,20.7749,8.00261,8.00261,0,0,0-7.99414.00342l-10.63476,6.14013,8,13.85645,6.92724-3.99951A40.0005,40.0005,0,0,0,366.85107,192,39.7356,39.7356,0,0,0,342.56249,173.36475Z" />
    <path
       id="path14"
       d="M423.99854,280a40.00032,40.00032,0,1,0,.00048-48h-9.79345a158.97984,158.97984,0,0,0-9.178-34.32831l8.46368-4.88653a40,40,0,1,0-24-41.56934l-8.5,4.90747a160.78083,160.78083,0,0,0-25.1145-25.1145l4.90747-8.5a40.00015,40.00015,0,1,0-41.56934-24l-4.88653,8.46368A158.97984,158.97984,0,0,0,280,97.79443V88.001a40,40,0,1,0-48,0v9.79345a158.97984,158.97984,0,0,0-34.32831,9.178l-4.88653-8.46368a40,40,0,1,0-41.56934,24l4.90747,8.5a160.78083,160.78083,0,0,0-25.1145,25.1145l-8.5-4.90747a40.00015,40.00015,0,1,0-24,41.56934l8.46368,4.88653A158.97984,158.97984,0,0,0,97.79443,232h-9.793a40.00032,40.00032,0,1,0-.00048,48h9.79345a158.98313,158.98313,0,0,0,9.178,34.32837l-8.46368,4.88647a39.99795,39.99795,0,1,0-15.647,76.77735,39.75705,39.75705,0,0,0,19.9331-5.35108,40.16005,40.16005,0,0,0,19.71387-29.85693l8.5-4.90747a160.78083,160.78083,0,0,0,25.1145,25.1145l-4.90747,8.5A40.00085,40.00085,0,0,0,136,463.84619a40.02154,40.02154,0,0,0,54.64111-14.64111,40.16134,40.16134,0,0,0,2.144-35.71387l4.88653-8.46362A158.98316,158.98316,0,0,0,232,414.20557v9.793a40.00032,40.00032,0,1,0,48,.00048v-9.79345a158.98316,158.98316,0,0,0,34.32831-9.178l4.88653,8.46362a39.99267,39.99267,0,0,0,36.85205,55.70606,39.98768,39.98768,0,0,0,34.57422-59.99219,40.16005,40.16005,0,0,0-29.85693-19.71387l-4.90747-8.5a160.78083,160.78083,0,0,0,25.1145-25.1145l8.5,4.90747a40.16005,40.16005,0,0,0,19.71387,29.85693,40.00008,40.00008,0,0,0,40-69.28222,40.16125,40.16125,0,0,0-35.71387-2.144l-8.46368-4.88647A158.98313,158.98313,0,0,0,414.20557,280ZM390.977,306.21619l-5.19769-3.00086-8,13.85645,31.41943,18.14013a8.00142,8.00142,0,0,0,7.99414.00342,23.99986,23.99986,0,1,1-11.99414,20.77442,8,8,0,0,0-4-6.92139L369.7793,330.92822l-8,13.85645,5.168,2.98376a144.75265,144.75265,0,0,1-19.1789,19.17884l-2.98376-5.168-13.85645,8,18.14014,31.41943a8,8,0,0,0,6.92139,4,24.00025,24.00025,0,1,1-20.77442,11.99414,8.00023,8.00023,0,0,0-.00342-7.99414L317.07178,377.7793l-13.85645,8,3.00086,5.19775A142.94937,142.94937,0,0,1,280,397.98389V392H264v36.28027a7.99927,7.99927,0,0,0,3.99463,6.92481,23.99982,23.99982,0,1,1-23.98877-.00049A8.00044,8.00044,0,0,0,248,428.27979V392H232v5.98389a142.94937,142.94937,0,0,1-26.21619-7.00684l3.00086-5.19775-13.85645-8-18.14013,31.41943a8.00023,8.00023,0,0,0-.00342,7.99414,23.99986,23.99986,0,1,1-20.77442-11.99414,8,8,0,0,0,6.92139-4l18.14014-31.41943-13.85645-8-2.98376,5.168a144.75265,144.75265,0,0,1-19.1789-19.17884l5.168-2.98376-8-13.85645-31.41943,18.14014a8,8,0,0,0-4,6.92139,24.00025,24.00025,0,1,1-11.99414-20.77442,8.00142,8.00142,0,0,0,7.99414-.00342l31.41943-18.14013-8-13.85645-5.19769,3.00086A142.95209,142.95209,0,0,1,114.01611,280H120V264H83.71973a7.99927,7.99927,0,0,0-6.92481,3.99463,23.99982,23.99982,0,1,1,.00049-23.98877A8.00044,8.00044,0,0,0,83.72021,248H120V232h-5.98389a142.94953,142.94953,0,0,1,7.0069-26.21619l5.19769,3.00086,8-13.85645-31.41943-18.14013a7.99786,7.99786,0,0,0-7.99414-.00342,23.99986,23.99986,0,1,1,11.99414-20.77442,8,8,0,0,0,4,6.92139l31.41943,18.14014,8-13.85645-5.168-2.98376a144.7567,144.7567,0,0,1,19.1789-19.1789l2.98376,5.168,13.85645-8-18.14014-31.41943a8,8,0,0,0-6.92139-4,24.00025,24.00025,0,1,1,20.77442-11.99414,8.00023,8.00023,0,0,0,.00342,7.99414l18.14013,31.41943,13.85645-8-3.00086-5.19769A142.94953,142.94953,0,0,1,232,114.01611V120h16V83.71973a7.99927,7.99927,0,0,0-3.99463-6.92481,24,24,0,1,1,23.98926,0A7.99927,7.99927,0,0,0,264,83.71973V120h16v-5.98389a142.94953,142.94953,0,0,1,26.21619,7.0069l-3.00086,5.19769,13.85645,8,18.14013-31.41943a8.00023,8.00023,0,0,0,.00342-7.99414,23.99986,23.99986,0,1,1,20.77442,11.99414,8,8,0,0,0-6.92139,4L330.92822,142.2207l13.85645,8,2.98376-5.168a144.7567,144.7567,0,0,1,19.1789,19.1789l-5.168,2.98376,8,13.85645,31.41943-18.14014a8,8,0,0,0,4-6.92139,24.00025,24.00025,0,1,1,11.99414,20.77442,7.99785,7.99785,0,0,0-7.99414.00342L377.7793,194.92822l8,13.85645,5.19769-3.00086A142.94953,142.94953,0,0,1,397.98389,232H392v16h36.28027a7.99927,7.99927,0,0,0,6.92481-3.99463,23.99982,23.99982,0,1,1-.00049,23.98877A8.00044,8.00044,0,0,0,428.27979,264H392v16h5.98389A142.95209,142.95209,0,0,1,390.977,306.21619Z" />
    <path
       id="path16"
       d="M216,256a40,40,0,1,0,40-40A40.04521,40.04521,0,0,0,216,256Zm64,0a24,24,0,1,1-24-24A24.0275,24.0275,0,0,1,280,256Z" />
  </g>
</svg>
